<?xml version="1.0" encoding="UTF-8"?>
<svg version="1.1" xmlns="http://www.w3.org/2000/svg" width="153" height="227">
<path d="M0 0 C50.49 0 100.98 0 153 0 C153 74.91 153 149.82 153 227 C102.51 227 52.02 227 0 227 C0 152.09 0 77.18 0 0 Z " fill="#1C77BA" transform="translate(0,0)"/>
<path d="M0 0 C47.85 0 95.7 0 145 0 C143.2904041 17.09595895 139.94937314 29.64710592 129 43 C128.45085937 43.70640625 127.90171875 44.4128125 127.3359375 45.140625 C117.0097282 57.70784142 102.21766447 66.88792957 85.98828125 68.71484375 C63.00681035 70.35798516 43.49216658 68.22235534 25.2734375 52.9921875 C8.03556026 37.88683115 2.4525868 23.29957461 0 0 Z " fill="#FCFEFE" transform="translate(4,152)"/>
<path d="M0 0 C0.95825815 16.68078994 -7.18166129 32.78226822 -17.62890625 45.44140625 C-24.01434994 52.33179442 -31.24609543 58.43359443 -40 62 C-40.66 62 -41.32 62 -42 62 C-42 62.66 -42 63.32 -42 64 C-50.42763743 67.65038909 -59.82584352 69.55044939 -69 69 C-69 65.37 -69 61.74 -69 58 C-68.34 58 -67.68 58 -67 58 C-67.12375 56.329375 -67.12375 56.329375 -67.25 54.625 C-67.17720307 40.81784977 -56.12438493 28.2947894 -47 19 C-46.31292969 18.2884375 -45.62585938 17.576875 -44.91796875 16.84375 C-33.48627936 5.81503296 -15.92258023 -1.32076702 0 0 Z " fill="#F8FCFD" transform="translate(74,78)"/>
<path d="M0 0 C15.27310876 -1.07179711 30.95293506 5.19387884 42.62109375 14.90625 C48.45705268 20.02871667 53.76095739 25.47029461 58 32 C58.49757812 32.639375 58.99515625 33.27875 59.5078125 33.9375 C66.10645377 43.22202038 69.28570443 57.65652286 69 69 C51.12565935 69.68747464 36.08251574 63.01653297 23 51 C22.34515625 50.401875 21.6903125 49.80375 21.015625 49.1875 C7.22484446 35.98606906 0.55855281 18.87908481 0 0 Z " fill="#F8FCFD" transform="translate(79,78)"/>
<path d="M0 0 C0.68768105 18.29995687 -6.48778477 32.53236401 -18.375 46.25 C-30.78453107 59.44040292 -48.39089361 69.48518778 -66.9609375 70.09765625 C-67.63382812 70.06542969 -68.30671875 70.03320312 -69 70 C-69.7909664 54.18067199 -63.68178537 39.30563057 -54 27 C-53.42765625 26.25105469 -52.8553125 25.50210937 -52.265625 24.73046875 C-45.81210483 16.85662256 -34.88448828 7.4558508 -24.9453125 4.74609375 C-24.16542969 4.53146484 -23.38554688 4.31683594 -22.58203125 4.09570312 C-21.77121094 3.87849609 -20.96039063 3.66128906 -20.125 3.4375 C-18.92037109 3.10588867 -18.92037109 3.10588867 -17.69140625 2.76757812 C-11.69161764 1.13172143 -6.26347135 -0.14566212 0 0 Z " fill="#F9FCFD" transform="translate(148,3)"/>
<path d="M0 0 C15.98788102 1.02577113 32.61971407 5.85041097 44.32421875 17.359375 C46.05325978 19.11861938 46.05325978 19.11861938 48.42578125 20.85546875 C59.67050639 30.22322915 65.84997857 45.02285575 69 59 C69.27227815 62.37106278 69.27380552 65.63067094 69 69 C52.63464733 70.35749469 37.3878592 63.11646048 25 53 C12.86070738 42.31387817 2.62123808 27.25167608 0 11 C-0.13716708 7.32588186 -0.12157236 3.67418682 0 0 Z " fill="#FAFDFD" transform="translate(5,3)"/>
<path d="M0 0 C0.33 0 0.66 0 1 0 C1 21.78 1 43.56 1 66 C-49.49 66 -99.98 66 -152 66 C-152 44.55 -152 23.1 -152 1 C-151.67 1 -151.34 1 -151 1 C-150.87625 1.680625 -150.7525 2.36125 -150.625 3.0625 C-146.17271977 23.98821709 -133.54459905 41.97459144 -115.875 53.8515625 C-99.01135653 63.82052871 -77.65227963 66.73208334 -58.56640625 62.7109375 C-54.75061319 61.65389894 -51.08021495 60.28568321 -47.41015625 58.8046875 C-45 58 -45 58 -41 58 C-41 57.34 -41 56.68 -41 56 C-39.906875 55.525625 -38.81375 55.05125 -37.6875 54.5625 C-20.17432346 45.75941657 -8.84976801 28.82641488 -2 11 C-1.08551405 7.35076561 -0.43420089 3.73562491 0 0 Z " fill="#F7FCFD" transform="translate(152,161)"/>
<path d="M0 0 C0.33 0 0.66 0 1 0 C1 32.67 1 65.34 1 99 C-1.66598558 95.44535255 -3.24186516 92.44110732 -5.0625 88.4375 C-8.13322128 81.93881795 -12.01558635 77.1899607 -17.05859375 72.109375 C-19 70 -19 70 -19 68 C-19.57105469 67.73574219 -20.14210938 67.47148438 -20.73046875 67.19921875 C-23.13159717 65.93046415 -25.14570161 64.44789015 -27.3125 62.8125 C-33.75909369 58.22014265 -40.80528183 55.20799787 -48 52 C-49.33842518 51.34361577 -50.6747539 50.68260164 -52 50 C-49 48 -49 48 -45.6875 46.875 C-34.66478585 42.81506845 -25.21645004 36.32008094 -17 28 C-16.37738281 27.39929688 -15.75476563 26.79859375 -15.11328125 26.1796875 C-8.22399171 19.02721162 -3.47372181 9.22211424 0 0 Z " fill="#F7FCFC" transform="translate(148,25)"/>
<path d="M0 0 C3.2350383 1.61751915 4.03367648 5.08666685 5.5 8.25 C14.36976784 26.59209584 27.8591694 39.35909911 47.25 46.4375 C48.82924337 46.97060617 50.41109223 47.49642884 52 48 C52 48.66 52 49.32 52 50 C50.97261719 50.3403125 49.94523437 50.680625 48.88671875 51.03125 C39.79772307 54.16462821 32.4820809 57.80879738 25 64 C24.14535156 64.66515625 23.29070313 65.3303125 22.41015625 66.015625 C12.21496472 74.40972111 5.55330955 85.7878979 1 98 C0.67 98 0.34 98 0 98 C0 65.66 0 33.32 0 0 Z " fill="#F9FCFD" transform="translate(4,26)"/>
<path d="M0 0 C2.66875442 1.94091231 3.032266 3.14788585 3.75 6.4375 C6.95563061 20.66737248 19.70314027 34.81802609 31.1875 43.375 C33.56398695 44.74808135 35.31428699 45.58681338 38 46 C38 46.66 38 47.32 38 48 C38.8353125 48.185625 38.8353125 48.185625 39.6875 48.375 C42.22114364 49.05976855 44.57921032 49.99133763 47 51 C47 51.33 47 51.66 47 52 C16.31 52 -14.38 52 -46 52 C-43.06118827 49.7958912 -40.33024822 48.03189986 -37.12719727 46.29907227 C-26.54864678 40.54797278 -16.52856111 33.05712221 -11 22 C-10.34 22 -9.68 22 -9 22 C-8.7215625 21.28714844 -8.443125 20.57429688 -8.15625 19.83984375 C-7.01549869 17.03806603 -5.77595131 14.30501729 -4.5 11.5625 C-2.75875553 7.76155337 -1.19373656 4.0152957 0 0 Z " fill="#F8FCFD" transform="translate(76,95)"/>
<path d="M0 0 C30.03 0 60.06 0 91 0 C84.33333333 5 84.33333333 5 80 5 C80 5.66 80 6.32 80 7 C78.37485926 8.1053347 76.69701265 9.13353881 75 10.125 C59.98635842 19.49412671 50.84801575 34.6255559 45 51 C42.76236817 48.24067311 41.41810252 45.78201996 40.25 42.4375 C32.78313929 23.33687878 18.13248121 10.6256816 0 2 C0 1.34 0 0.68 0 0 Z " fill="#F8FCFC" transform="translate(32,3)"/>
<path d="M0 0 C0.99 0 1.98 0 3 0 C3.0154612 1.64704422 3.0154612 1.64704422 3.03123474 3.32736206 C3.12884218 13.65752944 3.23156407 23.98763488 3.33933926 34.31770134 C3.39458654 39.62893443 3.44800943 44.940173 3.49731445 50.25146484 C3.54493136 55.37376946 3.59727319 60.49600568 3.65294075 65.61822891 C3.67337643 67.57590159 3.69208748 69.53359303 3.70907402 71.49129868 C3.73309118 74.22587643 3.76314937 76.96032423 3.79467773 79.69482422 C3.8004332 80.51049866 3.80618866 81.3261731 3.81211853 82.16656494 C3.77284124 86.21462543 3.77284124 86.21462543 5 90 C5.09959578 91.45304362 5.13830089 92.91050709 5.14526367 94.36694336 C5.15164352 95.27226303 5.15802338 96.1775827 5.16459656 97.1103363 C5.16570938 98.09357376 5.1668222 99.07681122 5.16796875 100.08984375 C5.17296135 101.61128746 5.17296135 101.61128746 5.17805481 103.16346741 C5.18312741 105.31803941 5.18546303 107.4726193 5.18530273 109.62719727 C5.18747038 112.89287719 5.20557003 116.15820887 5.22460938 119.42382812 C5.22754716 121.52083219 5.22952937 123.61783784 5.23046875 125.71484375 C5.23765427 126.67986313 5.24483978 127.64488251 5.25224304 128.6391449 C5.21802867 139.02245156 3.51530734 148.16185868 -1.0625 157.5 C-1.46098145 158.32169678 -1.85946289 159.14339355 -2.27001953 159.98999023 C-9.08316368 173.56939295 -20.69377394 187.02597154 -35 193 C-35.66 193 -36.32 193 -37 193 C-37 193.66 -37 194.32 -37 195 C-39.8302908 195.98878749 -42.66372753 196.96614336 -45.5 197.9375 C-46.29148438 198.21529297 -47.08296875 198.49308594 -47.8984375 198.77929688 C-55.77144257 201.45740926 -63.21036844 202.17029853 -71.5 202.125 C-72.20769531 202.12886719 -72.91539063 202.13273438 -73.64453125 202.13671875 C-78.50882959 202.12782607 -83.18380836 201.68337854 -88 201 C-88 200.67 -88 200.34 -88 200 C-80.74 200 -73.48 200 -66 200 C-68.743125 199.731875 -71.48625 199.46375 -74.3125 199.1875 C-81.43577196 198.44300818 -88.17624376 197.25454501 -95 195 C-91.88759994 194.00312414 -89.98657333 194.05162427 -86.85546875 194.921875 C-81.95293588 196.11218954 -77.34147859 196.30852224 -72.3125 196.25 C-71.43964355 196.24105713 -70.56678711 196.23211426 -69.66748047 196.22290039 C-49.09466233 195.85789268 -32.86115105 189.15401898 -18.46875 174.40625 C-16.1417532 171.69673317 -14.05131496 168.92322113 -12 166 C-11.28972656 165.02160156 -10.57945312 164.04320312 -9.84765625 163.03515625 C-2.29432244 151.43087246 -2.11564016 142.95507276 1 128 C-21.44 128 -43.88 128 -67 128 C-66.67 127.34 -66.34 126.68 -66 126 C-48.18809917 123.04065597 -28.90526437 125.04328842 -11 126 C-11 125.34 -11 124.68 -11 124 C-12.98 123.34 -14.96 122.68 -17 122 C-13.86194878 120.43097439 -10.73381412 121.43863554 -7.375 121.9375 C-6.31539062 122.08735352 -6.31539062 122.08735352 -5.234375 122.24023438 C-3.48878393 122.48791959 -1.74427916 122.74323871 0 123 C-0.70499846 119.20343594 -1.44345276 115.41408832 -2.1875 111.625 C-2.38408203 110.56410156 -2.58066406 109.50320312 -2.78320312 108.41015625 C-4.20983977 101.25502476 -6.44877611 95.35669077 -10 89 C-10.61094542 87.79507988 -11.21622154 86.58724536 -11.8125 85.375 C-12.204375 84.59125 -12.59625 83.8075 -13 83 C-11.68 82.34 -10.36 81.68 -9 81 C-8.05668855 82.51723557 -7.12066889 84.0390053 -6.1875 85.5625 C-5.66542969 86.40941406 -5.14335937 87.25632812 -4.60546875 88.12890625 C-2.83338405 91.29796283 -1.43026905 94.66270555 0 98 C0 65.66 0 33.32 0 0 Z " fill="#2B85C4" transform="translate(148,24)"/>
<path d="M0 0 C40.92 0 81.84 0 124 0 C124 37.62 124 75.24 124 114 C121.41696916 111.41696916 121.76417826 109.68573289 121.75115967 106.16656494 C121.7619455 104.94305328 121.7619455 104.94305328 121.77294922 103.69482422 C121.77265717 102.83621796 121.77236511 101.97761169 121.77206421 101.09298706 C121.77346078 98.24678543 121.78903727 95.40084356 121.8046875 92.5546875 C121.80841647 90.58456566 121.81126399 88.61444198 121.81326294 86.64431763 C121.82090854 81.45256452 121.84056496 76.26092286 121.8626709 71.06921387 C121.8831094 65.7740225 121.89226038 60.47881317 121.90234375 55.18359375 C121.92380999 44.78901346 121.95795708 34.39451599 122 24 C120.02 24.33 118.04 24.66 116 25 C116.99 17.74 117.98 10.48 119 3 C113.41809855 4.13996579 107.8460666 5.28969992 102.28125 6.50488281 C100.51318174 6.88862023 98.74160692 7.25621921 96.96875 7.6171875 C89.24658237 9.49624829 83.21291356 14.26255372 77 19 C76.23300781 19.58007812 75.46601562 20.16015625 74.67578125 20.7578125 C60.71344437 32.11421224 54.16815125 49.04951825 50 66 C49.354876 68.00705243 48.69643985 70.01017187 48 72 C47.34 72 46.68 72 46 72 C44.59545452 65.88019467 43.76731085 60.28260706 44 54 C44.66 53.67 45.32 53.34 46 53 C46.99 53.99 47.98 54.98 49 56 C48.99097656 55.42894531 48.98195312 54.85789063 48.97265625 54.26953125 C49.44389791 41.38209624 57.69418346 31.2385553 66 22 C66.91458984 20.9790625 66.91458984 20.9790625 67.84765625 19.9375 C71.71443915 15.85051306 75.94603612 12.52117278 81 10 C81.66 10 82.32 10 83 10 C83 9.34 83 8.68 83 8 C84.4562545 7.32880451 85.91507867 6.66318193 87.375 6 C88.18710938 5.62875 88.99921875 5.2575 89.8359375 4.875 C92 4 92 4 94 4 C94 3.34 94 2.68 94 2 C62.98 2 31.96 2 0 2 C0 1.34 0 0.68 0 0 Z " fill="#0E72BB" transform="translate(29,0)"/>
<path d="M0 0 C1.98 0.495 1.98 0.495 4 1 C4 7.27 4 13.54 4 20 C5.93875 20.20625 7.8775 20.4125 9.875 20.625 C10.96554687 20.74101562 12.05609375 20.85703125 13.1796875 20.9765625 C14.57574219 20.98816406 14.57574219 20.98816406 16 21 C16.66 20.34 17.32 19.68 18 19 C21.625 18.875 21.625 18.875 25 19 C25 19.99 25 20.98 25 22 C25.78158478 21.92894547 26.56316956 21.85789093 27.36843872 21.78468323 C37.84040431 20.92607329 48.24192618 20.87100877 58.7421875 20.90234375 C60.60547853 20.90421352 62.46877006 20.90563477 64.33206177 20.90663147 C69.18822638 20.91041271 74.04436011 20.92020438 78.9005127 20.93133545 C83.87507713 20.94164511 88.84964666 20.94614937 93.82421875 20.95117188 C103.54949258 20.9618315 113.2747437 20.97885376 123 21 C122.505 19.02 122.505 19.02 122 17 C127.41390868 17.46671627 131.20517932 18.24297811 136 21 C136 21.66 136 22.32 136 23 C134.83130371 22.99476318 133.66260742 22.98952637 132.45849609 22.98413086 C128.05632312 22.96581252 123.65415341 22.95447156 119.25195312 22.94506836 C117.35904369 22.94008871 115.46613799 22.93330257 113.57324219 22.92456055 C97.2531813 22.73540358 97.2531813 22.73540358 81 24 C80.505 24.495 80.505 24.495 80 25 C77.59651714 25.09496708 75.22189018 25.12558862 72.81811523 25.11352539 C71.6913588 25.11374443 71.6913588 25.11374443 70.5418396 25.1139679 C68.04739541 25.11326863 65.55302497 25.10547564 63.05859375 25.09765625 C61.33366436 25.09579212 59.60873443 25.09436819 57.88380432 25.09336853 C53.33487497 25.08954297 48.78597733 25.07971238 44.23706055 25.06866455 C39.59879994 25.05845124 34.96053423 25.05387108 30.32226562 25.04882812 C21.21482978 25.03809014 12.10741752 25.02101327 3 25 C3.13567383 25.73750488 3.27134766 26.47500977 3.41113281 27.23486328 C3.58999023 28.21181152 3.76884766 29.18875977 3.953125 30.1953125 C4.13004883 31.15969238 4.30697266 32.12407227 4.48925781 33.11767578 C4.94670328 35.69922512 5.35293006 38.2836858 5.75 40.875 C8.15419299 52.47385471 14.52694705 62.02968645 22 71 C22.54140625 71.65613281 23.0828125 72.31226563 23.640625 72.98828125 C38.05697551 88.82442385 59.82279455 94.73182695 80.4296875 95.88671875 C81.27789062 95.92410156 82.12609375 95.96148437 83 96 C81 98 81 98 78.41796875 98.23046875 C74.94380357 98.18425857 71.47289852 98.10501205 68 98 C66.45699219 98.00773437 66.45699219 98.00773437 64.8828125 98.015625 C49.07244061 97.61332546 35.54479593 90.31231096 24 80 C23.10796875 79.24074219 22.2159375 78.48148437 21.296875 77.69921875 C9.83135185 67.23604962 1.10242898 50.38801493 -1 35 C-1.0913187 32.32780798 -1.14043277 29.68304181 -1.1328125 27.01171875 C-1.13376923 26.26791458 -1.13472595 25.52411041 -1.13571167 24.75776672 C-1.13638846 23.19715286 -1.13456932 21.6365361 -1.13037109 20.07592773 C-1.12497753 17.67750844 -1.13035236 15.27927319 -1.13671875 12.88085938 C-1.13605862 11.36197875 -1.13477882 9.84309824 -1.1328125 8.32421875 C-1.13584885 7.24463142 -1.13584885 7.24463142 -1.13894653 6.14323425 C-1.11497747 1.11497747 -1.11497747 1.11497747 0 0 Z " fill="#1D78BB" transform="translate(1,127)"/>
<path d="M0 0 C6.93 0 13.86 0 21 0 C21 0.66 21 1.32 21 2 C52.02 2 83.04 2 115 2 C115 2.33 115 2.66 115 3 C84.97 3 54.94 3 24 3 C24 3.66 24 4.32 24 5 C24.88171875 5.26683594 25.7634375 5.53367187 26.671875 5.80859375 C42.77657034 11.57377225 56.30776375 26.4590693 64 41.4375 C65.5905458 44.88274584 66.94335116 48.34975854 68 52 C68.99 51.34 69.98 50.68 71 50 C70.67 51.98 70.34 53.96 70 56 C68.68 55.34 67.36 54.68 66 54 C65.34 55.32 64.68 56.64 64 58 C63.78085938 57.26136719 63.56171875 56.52273437 63.3359375 55.76171875 C57.555697 37.26964853 46.94326238 22.67819684 30 13 C19.3946012 7.49123715 8.66679322 5.1144508 -3 3 C-3 2.67 -3 2.34 -3 2 C-0.36 2 2.28 2 5 2 C3.35 1.67 1.7 1.34 0 1 C0 0.67 0 0.34 0 0 Z " fill="#2078B9" transform="translate(8,0)"/>
<path d="M0 0 C0.33 0 0.66 0 1 0 C0.98839844 0.78246094 0.97679687 1.56492188 0.96484375 2.37109375 C0.95582031 3.38300781 0.94679688 4.39492187 0.9375 5.4375 C0.92589844 6.44683594 0.91429687 7.45617187 0.90234375 8.49609375 C0.71387324 10.94021067 0.71387324 10.94021067 2 12 C2 9.03 2 6.06 2 3 C2.99 2.67 3.98 2.34 5 2 C3.92238434 21.36232016 -6.81248624 37.35470488 -20.5 50.375 C-31.39709395 60 -31.39709395 60 -37 60 C-37 60.66 -37 61.32 -37 62 C-39.8302908 62.98878749 -42.66372753 63.96614336 -45.5 64.9375 C-46.29148438 65.21529297 -47.08296875 65.49308594 -47.8984375 65.77929688 C-55.77144257 68.45740926 -63.21036844 69.17029853 -71.5 69.125 C-72.20769531 69.12886719 -72.91539063 69.13273437 -73.64453125 69.13671875 C-78.50882959 69.12782607 -83.18380836 68.68337854 -88 68 C-88 67.67 -88 67.34 -88 67 C-80.74 67 -73.48 67 -66 67 C-68.743125 66.731875 -71.48625 66.46375 -74.3125 66.1875 C-81.43577196 65.44300818 -88.17624376 64.25454501 -95 62 C-91.88759994 61.00312414 -89.98657333 61.05162427 -86.85546875 61.921875 C-81.95293588 63.11218954 -77.34147859 63.30852224 -72.3125 63.25 C-71.43964355 63.24105713 -70.56678711 63.23211426 -69.66748047 63.22290039 C-49.09466233 62.85789268 -32.86115105 56.15401898 -18.46875 41.40625 C-7.39543953 28.51266932 -2.67435212 16.50356767 0 0 Z " fill="#1C77BA" transform="translate(148,157)"/>
<path d="M0 0 C1.98 0.495 1.98 0.495 4 1 C4 7.27 4 13.54 4 20 C5.93875 20.20625 7.8775 20.4125 9.875 20.625 C10.96554687 20.74101562 12.05609375 20.85703125 13.1796875 20.9765625 C14.57574219 20.98816406 14.57574219 20.98816406 16 21 C16.66 20.34 17.32 19.68 18 19 C21.625 18.875 21.625 18.875 25 19 C25 19.99 25 20.98 25 22 C25.78158478 21.92894547 26.56316956 21.85789093 27.36843872 21.78468323 C37.84040431 20.92607329 48.24192618 20.87100877 58.7421875 20.90234375 C60.60547853 20.90421352 62.46877006 20.90563477 64.33206177 20.90663147 C69.18822638 20.91041271 74.04436011 20.92020438 78.9005127 20.93133545 C83.87507713 20.94164511 88.84964666 20.94614937 93.82421875 20.95117188 C103.54949258 20.9618315 113.2747437 20.97885376 123 21 C122.505 19.02 122.505 19.02 122 17 C127.41390868 17.46671627 131.20517932 18.24297811 136 21 C136 21.66 136 22.32 136 23 C134.83130371 22.99476318 133.66260742 22.98952637 132.45849609 22.98413086 C128.05632312 22.96581252 123.65415341 22.95447156 119.25195312 22.94506836 C117.35904369 22.94008871 115.46613799 22.93330257 113.57324219 22.92456055 C97.2531813 22.73540358 97.2531813 22.73540358 81 24 C80.505 24.495 80.505 24.495 80 25 C77.59552271 25.06501324 75.22148828 25.065159 72.81811523 25.02172852 C72.06694427 25.01212097 71.31577332 25.00251343 70.5418396 24.99261475 C68.04733235 24.95951019 65.55299405 24.91922191 63.05859375 24.87890625 C61.33367009 24.85461631 59.60874009 24.8307722 57.88380432 24.80735779 C53.33481659 24.74440474 48.78594039 24.67537011 44.23706055 24.60510254 C39.59884742 24.53452016 34.96055496 24.46964287 30.32226562 24.40429688 C21.21475658 24.27514001 12.1073551 24.13956336 3 24 C2.67 23.01 2.34 22.02 2 21 C1.67 21.66 1.34 22.32 1 23 C0.34 23 -0.32 23 -1 23 C-1.02887512 19.35418313 -1.04675585 15.70839537 -1.0625 12.0625 C-1.07087891 11.02158203 -1.07925781 9.98066406 -1.08789062 8.90820312 C-1.09272461 7.42416992 -1.09272461 7.42416992 -1.09765625 5.91015625 C-1.10289307 4.99371338 -1.10812988 4.07727051 -1.11352539 3.13305664 C-1 1 -1 1 0 0 Z " fill="#0871BD" transform="translate(1,127)"/>
<path d="M0 0 C0.66 0.33 1.32 0.66 2 1 C2 32.68 2 64.36 2 97 C4.475 91.555 4.475 91.555 7 86 C13.25312724 75.49088969 21.2592092 67.28946597 31 60 C31.59296875 59.54109375 32.1859375 59.0821875 32.796875 58.609375 C35.93849464 56.30983898 38.11107657 55.5424796 42 56 C41.67 56.99 41.34 57.98 41 59 C40.01 59 39.02 59 38 59 C37.77699219 59.57105469 37.55398437 60.14210937 37.32421875 60.73046875 C35.60755417 63.6725989 33.49891427 65.22636037 30.8125 67.3125 C23.34560208 73.32480741 17.88519748 78.83451637 12.75 86.9375 C12.32517334 87.60595947 11.90034668 88.27441895 11.46264648 88.96313477 C7.94644529 94.69347339 4.91992615 100.69682713 4.3125 107.5 C4.209375 108.655 4.10625 109.81 4 111 C3.34 111 2.68 111 2 111 C2 114.63 2 118.26 2 122 C1.67 122 1.34 122 1 122 C0.97285265 119.77090129 0.95353746 117.54170633 0.9375 115.3125 C0.92589844 114.07113281 0.91429687 112.82976562 0.90234375 111.55078125 C0.98521327 108.53764546 1.29160551 105.91724661 2 103 C0.35 103 -1.3 103 -3 103 C-3 102.34 -3 101.68 -3 101 C-2.01 100.505 -2.01 100.505 -1 100 C-0.67 67 -0.34 34 0 0 Z " fill="#3E90CB" transform="translate(3,25)"/>
<path d="M0 0 C3.3 0 6.6 0 10 0 C10 37.62 10 75.24 10 114 C7.41696916 111.41696916 7.76417826 109.68573289 7.75115967 106.16656494 C7.75835022 105.3508905 7.76554077 104.53521606 7.77294922 103.69482422 C7.77265717 102.83621796 7.77236511 101.97761169 7.77206421 101.09298706 C7.77346078 98.24678543 7.78903727 95.40084356 7.8046875 92.5546875 C7.80841647 90.58456566 7.81126399 88.61444198 7.81326294 86.64431763 C7.82090854 81.45256452 7.84056496 76.26092286 7.8626709 71.06921387 C7.8831094 65.7740225 7.89226038 60.47881317 7.90234375 55.18359375 C7.92380999 44.78901346 7.95795708 34.39451599 8 24 C6.02 24.33 4.04 24.66 2 25 C2.13277344 24.26136719 2.26554688 23.52273437 2.40234375 22.76171875 C3.60520339 15.85186083 4.47684141 8.9938043 5 2 C3.35 2 1.7 2 0 2 C0 1.34 0 0.68 0 0 Z " fill="#026EBD" transform="translate(143,0)"/>
<path d="M0 0 C1.16666667 0.875 2.33333333 1.75 3.5 2.625 C4.24378906 3.17414062 4.98757812 3.72328125 5.75390625 4.2890625 C8 6 8 6 9.71484375 7.5234375 C20.07201463 16.40101254 34.81851476 18.88715263 48 20 C48.33 18.68 48.66 17.36 49 16 C49 17.32 49 18.64 49 20 C49.66 20 50.32 20 51 20 C51 18.35 51 16.7 51 15 C51.66 14.67 52.32 14.34 53 14 C53 16.31 53 18.62 53 21 C51.02 21.99 51.02 21.99 49 23 C49 22.34 49 21.68 49 21 C43.72 21.33 38.44 21.66 33 22 C33 22.66 33 23.32 33 24 C32.34 24 31.68 24 31 24 C31 24.66 31 25.32 31 26 C32.11375 25.7525 32.11375 25.7525 33.25 25.5 C38.50409401 24.79945413 43.70751749 24.92292501 49 25 C49 26.65 49 28.3 49 30 C48.505 28.02 48.505 28.02 48 26 C37.64012514 27.16471966 27.68801009 28.90854783 18.375 33.8125 C17.59125 34.204375 16.8075 34.59625 16 35 C15.34 34.67 14.68 34.34 14 34 C14.33 33.34 14.66 32.68 15 32 C15.99 32 16.98 32 18 32 C18.33 30.35 18.66 28.7 19 27 C20.45706726 26.49632243 21.91570096 25.99717444 23.375 25.5 C24.18710937 25.2215625 24.99921875 24.943125 25.8359375 24.65625 C28 24 28 24 30 24 C30 23.34 30 22.68 30 22 C29.06994141 21.83177734 29.06994141 21.83177734 28.12109375 21.66015625 C15.28604501 18.80169561 4.23204059 11.18200243 -5 2 C-4.34 1.67 -3.68 1.34 -3 1 C-2.01 1.33 -1.02 1.66 0 2 C0 1.34 0 0.68 0 0 Z " fill="#257DBE" transform="translate(26,52)"/>
<path d="M0 0 C0.66 0.33 1.32 0.66 2 1 C2 1.99 2 2.98 2 4 C24.44 4 46.88 4 70 4 C70 4.33 70 4.66 70 5 C47.56 5 25.12 5 2 5 C2.66 8.63 3.32 12.26 4 16 C4.37125 18.413125 4.37125 18.413125 4.75 20.875 C5.82202175 26.26941345 8.14824124 30.93380954 10.53515625 35.859375 C12.38783148 39.83151068 13.72230984 43.81201559 15 48 C14.01 48 13.02 48 12 48 C4.52516107 35.62849239 -2.22752024 23.47682131 -2.0625 8.625 C-2.05347656 7.56539062 -2.04445312 6.50578125 -2.03515625 5.4140625 C-2.01775391 4.21910156 -2.01775391 4.21910156 -2 3 C-1.34 3 -0.68 3 0 3 C0 2.01 0 1.02 0 0 Z " fill="#1172B7" transform="translate(2,147)"/>
<path d="M0 0 C6.93 0 13.86 0 21 0 C21 0.66 21 1.32 21 2 C52.02 2 83.04 2 115 2 C115 2.33 115 2.66 115 3 C84.97 3 54.94 3 24 3 C24 3.66 24 4.32 24 5 C24.99 5.33 25.98 5.66 27 6 C27.33 6.99 27.66 7.98 28 9 C28.66 9.33 29.32 9.66 30 10 C30 10.66 30 11.32 30 12 C28.6875 11.5625 27.375 11.125 26.0625 10.6875 C25.23105469 10.41292969 24.39960937 10.13835938 23.54296875 9.85546875 C21.99734664 9.33551293 20.45656147 8.80043218 18.92578125 8.23828125 C11.80482359 5.67473649 4.4199566 4.37841091 -3 3 C-3 2.67 -3 2.34 -3 2 C-0.36 2 2.28 2 5 2 C3.35 1.67 1.7 1.34 0 1 C0 0.67 0 0.34 0 0 Z " fill="#2980BF" transform="translate(8,0)"/>
<path d="M0 0 C0.80759766 -0.01224609 1.61519531 -0.02449219 2.44726562 -0.03710938 C6.81602255 -0.04784342 10.21004059 0.14632915 14.1875 2.1875 C14.1875 2.5175 14.1875 2.8475 14.1875 3.1875 C12.5375 3.5175 10.8875 3.8475 9.1875 4.1875 C9.5175 10.4575 9.8475 16.7275 10.1875 23.1875 C6.1875 24.1875 6.1875 24.1875 4.1875 24.1875 C3.8575 25.1775 3.5275 26.1675 3.1875 27.1875 C2.5275 27.1875 1.8675 27.1875 1.1875 27.1875 C1.98098343 19.41136241 3.61643057 11.83792503 5.1875 4.1875 C-0.7525 4.5175 -6.6925 4.8475 -12.8125 5.1875 C-12.8125 4.5275 -12.8125 3.8675 -12.8125 3.1875 C-12.1525 3.1875 -11.4925 3.1875 -10.8125 3.1875 C-10.8125 2.5275 -10.8125 1.8675 -10.8125 1.1875 C-7.45228043 -0.49260978 -3.69152188 0.00290442 0 0 Z " fill="#066FBC" transform="translate(69.8125,72.8125)"/>
<path d="M0 0 C0.66 0 1.32 0 2 0 C2.33 30.69 2.66 61.38 3 93 C1.515 93.495 1.515 93.495 0 94 C0 62.98 0 31.96 0 0 Z " fill="#036EBB" transform="translate(0,32)"/>
<path d="M0 0 C2.39104091 2.14992754 3.54621413 3.94788774 4.6875 6.9375 C7.63338148 13.87567646 11.80161112 20.91821905 17.25 26.16796875 C19 28 19 28 19 31 C13.87596529 30.31912316 12.11548101 28.60426931 8.91015625 24.72265625 C6.56050938 21.37356859 4.56454923 17.91132943 2.625 14.3125 C2.10619263 13.35029541 2.10619263 13.35029541 1.5769043 12.36865234 C-0.20072039 8.94155214 -1.48652037 5.83642639 -2 2 C-1.34 2 -0.68 2 0 2 C0 1.34 0 0.68 0 0 Z " fill="#1974B8" transform="translate(7,23)"/>
<path d="M0 0 C3.14703761 1.57351881 3.7416747 4.30201662 5.1875 7.4375 C5.73792969 8.61183594 6.28835937 9.78617188 6.85546875 10.99609375 C7.23316406 11.98738281 7.61085938 12.97867188 8 14 C7.67 14.66 7.34 15.32 7 16 C6.34 15.67 5.68 15.34 5 15 C5 13.35 5 11.7 5 10 C4.34 10 3.68 10 3 10 C2.67 9.34 2.34 8.68 2 8 C2 34.4 2 60.8 2 88 C2.495 87.01 2.495 87.01 3 86 C3.66 86 4.32 86 5 86 C4.33501617 90.38889325 2.81242323 93.9811485 1 98 C0.67 98 0.34 98 0 98 C0 65.66 0 33.32 0 0 Z " fill="#ECFEFF" transform="translate(4,26)"/>
<path d="M0 0 C7.59334475 0.90090531 7.59334475 0.90090531 10.1640625 1.52734375 C14.33774818 2.22295803 18.46387988 2.14685977 22.6875 2.125 C23.57856445 2.12306641 24.46962891 2.12113281 25.38769531 2.11914062 C31.31800728 2.08011115 37.11591754 1.78454433 43 1 C43 1.66 43 2.32 43 3 C43.99 3.66 44.98 4.32 46 5 C38.60831553 7.77188167 31.29904005 8.16761771 23.5 8.125 C22.79230469 8.12886719 22.08460937 8.13273438 21.35546875 8.13671875 C16.49117041 8.12782607 11.81619164 7.68337854 7 7 C7 6.67 7 6.34 7 6 C14.26 6 21.52 6 29 6 C24.8853125 5.5978125 24.8853125 5.5978125 20.6875 5.1875 C13.56422804 4.44300818 6.82375624 3.25454501 0 1 C0 0.67 0 0.34 0 0 Z " fill="#3485C0" transform="translate(53,218)"/>
<path d="M0 0 C9.66969804 4.37873119 19.27688492 10.64896082 26 19 C26.33 19.99 26.66 20.98 27 22 C24.8125 22.8125 24.8125 22.8125 22 23 C19.625 21 19.625 21 17 18 C12.67562902 13.33258998 8.68600738 9.90102417 3 7 C3 6.01 3 5.02 3 4 C1.68 3.34 0.36 2.68 -1 2 C-0.67 1.34 -0.34 0.68 0 0 Z " fill="#207ABD" transform="translate(35,6)"/>
<path d="M0 0 C0 0.66 0 1.32 0 2 C-0.99 2.33 -1.98 2.66 -3 3 C-3.33 3.66 -3.66 4.32 -4 5 C20.75 5.33 45.5 5.66 71 6 C70.01 3.525 70.01 3.525 69 1 C69.66 1 70.32 1 71 1 C71 1.66 71 2.32 71 3 C71.556875 3.12375 72.11375 3.2475 72.6875 3.375 C75.22114364 4.05976855 77.57921032 4.99133763 80 6 C80 6.33 80 6.66 80 7 C49.31 7 18.62 7 -13 7 C-3.66666667 0 -3.66666667 0 0 0 Z " fill="#D9F7FC" transform="translate(43,140)"/>
<path d="M0 0 C4.22647368 -0.63397105 6.56489023 0.06751342 9.9375 2.5 C15.07329948 6.65004142 19.34346844 11.51520265 23 17 C22.67 17.99 22.34 18.98 22 20 C18.41288566 19.4421766 17.13603785 18.33392091 14.9375 15.5 C11.17564191 10.94963017 6.81939717 7.48227991 2.16015625 3.8828125 C1.44730469 3.26148437 0.73445313 2.64015625 0 2 C0 1.34 0 0.68 0 0 Z " fill="#2377B3" transform="translate(115,87)"/>
<path d="M0 0 C30.03 0 60.06 0 91 0 C87.43688534 2.672336 85.15414253 3.77263971 81 5 C81 4.01 81 3.02 81 2 C56.25 1.67 31.5 1.34 6 1 C6 1.99 6 2.98 6 4 C4.02 3.34 2.04 2.68 0 2 C0 1.34 0 0.68 0 0 Z " fill="#B7E6FE" transform="translate(32,3)"/>
<path d="M0 0 C1.134375 0.4125 2.26875 0.825 3.4375 1.25 C15.44064977 5.21330417 27.35342132 7.59915757 40 8 C38 10 38 10 35.41796875 10.23046875 C31.94349261 10.18425444 28.47303423 10.11179295 25 10 C23.90171875 9.98195312 22.8034375 9.96390625 21.671875 9.9453125 C13.60362145 9.6140074 7.2356696 7.53309273 0 4 C0 2.68 0 1.36 0 0 Z " fill="#1170B4" transform="translate(44,215)"/>
<path d="M0 0 C0.33 0 0.66 0 1 0 C1 28.38 1 56.76 1 86 C-1.90408342 82.12788877 -2.85079464 79.59682146 -4 75 C-2.515 74.505 -2.515 74.505 -1 74 C-0.67 49.58 -0.34 25.16 0 0 Z " fill="#E4FBFE" transform="translate(148,38)"/>
<path d="M0 0 C0.66 0 1.32 0 2 0 C1.71828671 2.77217867 1.42508608 5.54230241 1.125 8.3125 C1.04636719 9.09818359 0.96773438 9.88386719 0.88671875 10.69335938 C0.80292969 11.45068359 0.71914062 12.20800781 0.6328125 12.98828125 C0.55949707 13.68477783 0.48618164 14.38127441 0.41064453 15.09887695 C0 17 0 17 -2 20 C-2.38499891 21.65549531 -2.72793135 23.3222433 -3 25 C-3.66 25 -4.32 25 -5 25 C-6.40454548 18.88019467 -7.23268915 13.28260706 -7 7 C-6.34 6.67 -5.68 6.34 -5 6 C-4.01 6.99 -3.02 7.98 -2 9 C-1.34 6.03 -0.68 3.06 0 0 Z " fill="#086EB9" transform="translate(80,47)"/>
<path d="M0 0 C20.13 0 40.26 0 61 0 C61 0.33 61 0.66 61 1 C54.65034737 1.1441457 48.30065315 1.28634344 41.95092773 1.42724609 C39.79499343 1.47530986 37.63906868 1.52380438 35.4831543 1.57275391 C32.36770051 1.6434122 29.25221458 1.7124734 26.13671875 1.78125 C25.18729904 1.80312378 24.23787933 1.82499756 23.25968933 1.84753418 C16.83882346 1.98724426 10.42230035 2.02451464 4 2 C4.33 2.99 4.66 3.98 5 5 C7.01508358 5.73323796 7.01508358 5.73323796 9 6 C9 6.66 9 7.32 9 8 C10.32 8 11.64 8 13 8 C13.33 9.32 13.66 10.64 14 12 C10.86528839 10.46194057 7.79109369 8.84117275 4.75 7.125 C3.85796875 6.63257813 2.9659375 6.14015625 2.046875 5.6328125 C1.37140625 5.09398437 0.6959375 4.55515625 0 4 C0 2.68 0 1.36 0 0 Z " fill="#F2FEFE" transform="translate(38,4)"/>
<path d="M0 0 C5.1025767 7.65386506 6.73621976 16.94040689 6 26 C-4.55808656 26.18451025 -4.55808656 26.18451025 -9 25 C-6.66785852 23.79371992 -4.50357861 22.8345262 -2 22 C-2 21.34 -2 20.68 -2 20 C-0.35 20 1.3 20 3 20 C2.50366307 14.58586368 2.50366307 14.58586368 0.9375 9.4375 C-0.2969955 6.22781169 -0.13356551 3.40592049 0 0 Z " fill="#F9FDFC" transform="translate(68,46)"/>
<path d="M0 0 C0.66 0.33 1.32 0.66 2 1 C2 1.99 2 2.98 2 4 C24.44 4 46.88 4 70 4 C70 4.33 70 4.66 70 5 C47.56 5 25.12 5 2 5 C2.66 8.63 3.32 12.26 4 16 C3.67 17.32 3.34 18.64 3 20 C1 18 1 18 0 16 C0.66 16 1.32 16 2 16 C1.835 15.484375 1.67 14.96875 1.5 14.4375 C0.84951 11.26636124 0.9379266 8.22781666 1 5 C0.01 5 -0.98 5 -2 5 C-2 4.34 -2 3.68 -2 3 C-1.34 3 -0.68 3 0 3 C0 2.01 0 1.02 0 0 Z " fill="#5199CB" transform="translate(2,147)"/>
<path d="M0 0 C0.33 0 0.66 0 1 0 C1.268125 1.27875 1.53625 2.5575 1.8125 3.875 C3.40769003 10.99718647 4.95574813 17.83733048 9 24 C9 24.66 9 25.32 9 26 C8.34 26 7.68 26 7 26 C6.67 27.32 6.34 28.64 6 30 C-0.86399838 18.39207613 -0.86399838 18.39207613 -1 12 C-0.67 11.34 -0.34 10.68 0 10 C0.06996014 8.29297265 0.08440154 6.58331997 0.0625 4.875 C0.05347656 3.96492188 0.04445313 3.05484375 0.03515625 2.1171875 C0.02355469 1.41851562 0.01195313 0.71984375 0 0 Z " fill="#297FBD" transform="translate(79,85)"/>
<path d="M0 0 C0.66 0.33 1.32 0.66 2 1 C2 1.99 2 2.98 2 4 C-0.04337711 5.48391662 -2.00808949 6.74924877 -4.1875 8 C-4.76564453 8.34289063 -5.34378906 8.68578125 -5.93945312 9.0390625 C-7.62115692 10.03478316 -9.31048757 11.01758714 -11 12 C-11.92425781 12.598125 -12.84851563 13.19625 -13.80078125 13.8125 C-14.52652344 14.204375 -15.25226563 14.59625 -16 15 C-16.66 14.67 -17.32 14.34 -18 14 C-18 13.34 -18 12.68 -18 12 C-17.34 12 -16.68 12 -16 12 C-16 11.01 -16 10.02 -16 9 C-11.77777778 6 -11.77777778 6 -9 6 C-9 5.34 -9 4.68 -9 4 C-7.54618103 3.30300448 -6.08677047 2.61766134 -4.625 1.9375 C-3.81289062 1.55464844 -3.00078125 1.17179688 -2.1640625 0.77734375 C-1.44992188 0.52082031 -0.73578125 0.26429688 0 0 Z " fill="#1474BA" transform="translate(121,4)"/>
<path d="M0 0 C0 0.66 0 1.32 0 2 C-6.188579 5.91644371 -11.7452991 7.98525061 -19 9 C-18.67 8.34 -18.34 7.68 -18 7 C-19.32 6.34 -20.64 5.68 -22 5 C-21.34773438 4.81824219 -20.69546875 4.63648437 -20.0234375 4.44921875 C-16.03012995 3.30070109 -12.42308802 2.22781663 -8.75 0.25 C-5.38364947 -1.28015933 -3.52044945 -0.92202248 0 0 Z " fill="#3084BD" transform="translate(115,65)"/>
<path d="M0 0 C0.928125 0.20625 1.85625 0.4125 2.8125 0.625 C0.8125 3.625 0.8125 3.625 -1.8125 4.3125 C-2.988125 4.4671875 -2.988125 4.4671875 -4.1875 4.625 C-4.1875 5.285 -4.1875 5.945 -4.1875 6.625 C-9.71510359 8.73075375 -14.25747733 10.00351209 -20.1875 9.625 C-19.8575 8.635 -19.5275 7.645 -19.1875 6.625 C-16.3515625 5.30859375 -16.3515625 5.30859375 -12.8125 4.0625 C-1.04991565 -0.12351949 -1.04991565 -0.12351949 0 0 Z " fill="#1872B8" transform="translate(115.1875,212.375)"/>
<path d="M0 0 C0.99 0 1.98 0 3 0 C4.32 3.3 5.64 6.6 7 10 C7.99 9.34 8.98 8.68 10 8 C9.67 9.98 9.34 11.96 9 14 C7.68 13.34 6.36 12.68 5 12 C4.34 13.32 3.68 14.64 3 16 C2.29954544 14.08802961 1.615081 12.17019565 0.9375 10.25 C0.55464844 9.18265625 0.17179687 8.1153125 -0.22265625 7.015625 C-0.98010011 4.07719958 -1.07151741 2.77651052 0 0 Z " fill="#2780BC" transform="translate(69,42)"/>
<path d="M0 0 C3.3 0 6.6 0 10 0 C10.37281553 7.58058252 10.37281553 7.58058252 8.5 9.6875 C8.005 10.120625 7.51 10.55375 7 11 C7 11.845625 7 12.69125 7 13.5625 C7 14.366875 7 15.17125 7 16 C6.01 16.66 5.02 17.32 4 18 C4.33 12.72 4.66 7.44 5 2 C3.35 2 1.7 2 0 2 C0 1.34 0 0.68 0 0 Z " fill="#0D73BA" transform="translate(143,0)"/>
<path d="M0 0 C5.41390868 0.46671627 9.20517932 1.24297811 14 4 C14 4.66 14 5.32 14 6 C6.74 6 -0.52 6 -8 6 C-8 5.67 -8 5.34 -8 5 C-3.545 4.505 -3.545 4.505 1 4 C0.67 2.68 0.34 1.36 0 0 Z " fill="#036EBC" transform="translate(123,144)"/>
<path d="M0 0 C0.24397009 6.4923153 0.16463662 12.80005314 -2 19 C-2.66 19.66 -3.32 20.32 -4 21 C-3.505 12.09 -3.505 12.09 -3 3 C-9.02808545 2.99923032 -9.02808545 2.99923032 -14.9375 3.5 C-15.70964844 3.5928125 -16.48179687 3.685625 -17.27734375 3.78125 C-18.13005859 3.88953125 -18.13005859 3.88953125 -19 4 C-13.5018812 0.33458746 -6.52793043 -0.34357529 0 0 Z " fill="#BFE4F6" transform="translate(148,3)"/>
<path d="M0 0 C0.33 0 0.66 0 1 0 C0.98839844 0.78246094 0.97679687 1.56492188 0.96484375 2.37109375 C0.95582031 3.38300781 0.94679687 4.39492187 0.9375 5.4375 C0.92589844 6.44683594 0.91429687 7.45617187 0.90234375 8.49609375 C0.71387324 10.94021067 0.71387324 10.94021067 2 12 C2 9.03 2 6.06 2 3 C2.99 2.67 3.98 2.34 5 2 C4.69163768 4.12560437 4.37818386 6.25047065 4.0625 8.375 C3.88847656 9.55835938 3.71445313 10.74171875 3.53515625 11.9609375 C3 15 3 15 2 17 C1.01 17.33 0.02 17.66 -1 18 C-1.33 18.66 -1.66 19.32 -2 20 C-2.66 19.67 -3.32 19.34 -4 19 C-2.02 9.595 -2.02 9.595 0 0 Z " fill="#2F84C1" transform="translate(148,157)"/>
<path d="M0 0 C5.45111321 2.58210626 10.17518523 5.38138892 15 9 C14.34 9.66 13.68 10.32 13 11 C13.66 11.66 14.32 12.32 15 13 C11.86198897 12.36391668 9.47850869 11.29242198 6.75 9.625 C6.04359375 9.20476563 5.3371875 8.78453125 4.609375 8.3515625 C4.07828125 7.90554687 3.5471875 7.45953125 3 7 C3 6.01 3 5.02 3 4 C1.68 3.34 0.36 2.68 -1 2 C-0.67 1.34 -0.34 0.68 0 0 Z " fill="#1171B8" transform="translate(35,6)"/>
<path d="M0 0 C6.02770138 0.47587116 10.76678289 3.19722957 16 6 C15.01 7.485 15.01 7.485 14 9 C10.28111761 8.49287967 7.26545761 7.88391785 4 6 C4 5.34 4 4.68 4 4 C2.68 3.34 1.36 2.68 0 2 C0 1.34 0 0.68 0 0 Z " fill="#1873B6" transform="translate(110,137)"/>
<path d="M0 0 C1.1034375 0.14308594 2.206875 0.28617188 3.34375 0.43359375 C8.38736666 1.06404583 13.44169566 1.56622741 18.5 2.0625 C19.4178125 2.15337891 20.335625 2.24425781 21.28125 2.33789062 C23.52074478 2.5595073 25.7603271 2.7801921 28 3 C26 5 26 5 23.34765625 5.23046875 C16.18482173 5.13678126 9.12045855 4.79908954 2 4 C2.33 3.34 2.66 2.68 3 2 C2.01 1.34 1.02 0.68 0 0 Z " fill="#056DB8" transform="translate(56,220)"/>
<path d="M0 0 C0.05391993 1.79133978 0.09275571 3.58313899 0.125 5.375 C0.14820313 6.37273437 0.17140625 7.37046875 0.1953125 8.3984375 C0 11 0 11 -2 13 C-2.45811675 14.97235333 -2.45811675 14.97235333 -2.625 17.125 C-2.74875 18.40375 -2.8725 19.6825 -3 21 C-3.66 20.67 -4.32 20.34 -5 20 C-4.91329863 17.04019468 -4.80646977 14.08353131 -4.6875 11.125 C-4.66494141 10.28324219 -4.64238281 9.44148437 -4.61914062 8.57421875 C-4.58369141 7.76855469 -4.54824219 6.96289062 -4.51171875 6.1328125 C-4.48553467 5.38918457 -4.45935059 4.64555664 -4.43237305 3.87939453 C-3.89448171 1.541344 -2.69030346 0 0 0 Z " fill="#1075BB" transform="translate(153,148)"/>
<path d="M0 0 C0.66 0.33 1.32 0.66 2 1 C1.41892368 4.7602985 0.34800504 7.53035032 -1.5625 10.8125 C-2.01753906 11.60269531 -2.47257813 12.39289063 -2.94140625 13.20703125 C-3.29074219 13.79871094 -3.64007813 14.39039063 -4 15 C-4.99 14.34 -5.98 13.68 -7 13 C-6.57692877 11.68277821 -6.13602514 10.37127336 -5.6875 9.0625 C-5.44386719 8.33160156 -5.20023438 7.60070312 -4.94921875 6.84765625 C-4 5 -4 5 -1 4 C-0.26676204 1.98491642 -0.26676204 1.98491642 0 0 Z " fill="#1773B7" transform="translate(147,173)"/>
<path d="M0 0 C3.35829104 1.43714007 5.39970698 3.20977399 7.8125 5.9375 C8.43769531 6.62714844 9.06289062 7.31679687 9.70703125 8.02734375 C10.34705078 9.00380859 10.34705078 9.00380859 11 10 C10.67 10.99 10.34 11.98 10 13 C8.1875 12.9375 8.1875 12.9375 6 12 C4.93097061 9.69747517 3.92824183 7.3627974 3 5 C2.34 4.67 1.68 4.34 1 4 C1 3.34 1 2.68 1 2 C0.34 1.67 -0.32 1.34 -1 1 C-0.67 0.67 -0.34 0.34 0 0 Z " fill="#1271B7" transform="translate(127,94)"/>
<path d="M0 0 C5.1025767 7.65386506 6.73621976 16.94040689 6 26 C5.67 26 5.34 26 5 26 C5 24.02 5 22.04 5 20 C4.34 20 3.68 20 3 20 C2.814375 18.1746875 2.814375 18.1746875 2.625 16.3125 C2.3122679 13.72906095 1.94323331 11.86309211 0.9375 9.4375 C-0.2969955 6.22781169 -0.13356551 3.40592049 0 0 Z " fill="#BCE4F7" transform="translate(68,46)"/>
<path d="M0 0 C-0.639375 0.433125 -1.27875 0.86625 -1.9375 1.3125 C-4.26746003 2.91239177 -4.26746003 2.91239177 -5 6 C-8.3 6 -11.6 6 -15 6 C-9.93537488 0.66161136 -7.3148378 -0.13801581 0 0 Z " fill="#076CB8" transform="translate(100,71)"/>
<path d="M0 0 C-2.297221 1.74271938 -4.59866729 3.39911152 -7 5 C-6.34 5.66 -5.68 6.32 -5 7 C-7.97 7 -10.94 7 -14 7 C-14.33 7.99 -14.66 8.98 -15 10 C-14.67 8.35 -14.34 6.7 -14 5 C-12.68 4.67 -11.36 4.34 -10 4 C-11.32 3.34 -12.64 2.68 -14 2 C-4.58997722 -0.29612756 -4.58997722 -0.29612756 0 0 Z " fill="#2B83C6" transform="translate(93,71)"/>
<path d="M0 0 C1.125 3.75 1.125 3.75 0 6 C0.66 6 1.32 6 2 6 C2 5.01 2 4.02 2 3 C2.66 3 3.32 3 4 3 C3.731875 3.639375 3.46375 4.27875 3.1875 4.9375 C1.64635858 8.91202261 0.32390688 12.94884495 -1 17 C-1.33 17 -1.66 17 -2 17 C-1.67 14.36 -1.34 11.72 -1 9 C-1.66 9 -2.32 9 -3 9 C-3.33 9.99 -3.66 10.98 -4 12 C-3.45660208 7.43545749 -2.20536179 4.0271824 0 0 Z " fill="#2C80BB" transform="translate(83,38)"/>
<path d="M0 0 C3.38297413 0.17805127 4.76272061 0.78837244 7.3125 3.0625 C8.1478125 4.0215625 8.1478125 4.0215625 9 5 C8.34 5 7.68 5 7 5 C7.66 6.32 8.32 7.64 9 9 C4.40693504 7.5140084 1.56430755 5.14985318 -2 2 C-1.34 1.34 -0.68 0.68 0 0 Z " fill="#297FBA" transform="translate(103,132)"/>
<path d="M0 0 C0.33 0 0.66 0 1 0 C1.28211913 4.89006497 1.20444268 7.28284649 -2 11 C-2.70514846 13.14733927 -2.70514846 13.14733927 -3 15 C-3.66 15 -4.32 15 -5 15 C-5.33 16.65 -5.66 18.3 -6 20 C-6.99 20 -7.98 20 -9 20 C-7.32073668 15.63221913 -5.36694083 11.41834992 -3.375 7.1875 C-2.88773438 6.14819336 -2.88773438 6.14819336 -2.390625 5.08789062 C-1.59500115 3.39133977 -0.79767301 1.69558835 0 0 Z " fill="#B5E4F9" transform="translate(148,25)"/>
<path d="M0 0 C0.93045933 2.55144824 1.08564091 3.74006478 0.22265625 6.359375 C-0.16019531 7.14828125 -0.54304688 7.9371875 -0.9375 8.75 C-1.31777344 9.54921875 -1.69804688 10.3484375 -2.08984375 11.171875 C-2.39019531 11.77515625 -2.69054687 12.3784375 -3 13 C-3.66 11.68 -4.32 10.36 -5 9 C-5.99 9.495 -5.99 9.495 -7 10 C-6.01 7.03 -5.02 4.06 -4 1 C-3.01 1.33 -2.02 1.66 -1 2 C-0.67 1.34 -0.34 0.68 0 0 Z " fill="#3480B9" transform="translate(74,97)"/>
<path d="M0 0 C0.66 0 1.32 0 2 0 C1.67 1.32 1.34 2.64 1 4 C1.7425 3.835 2.485 3.67 3.25 3.5 C8.50409401 2.79945413 13.70751749 2.92292501 19 3 C19 4.65 19 6.3 19 8 C18.67 6.68 18.34 5.36 18 4 C16.73542969 4.16757813 15.47085938 4.33515625 14.16796875 4.5078125 C12.50788803 4.71415022 10.84772743 4.91984604 9.1875 5.125 C8.35412109 5.23714844 7.52074219 5.34929687 6.66210938 5.46484375 C5.45844727 5.60986328 5.45844727 5.60986328 4.23046875 5.7578125 C3.12288208 5.89920654 3.12288208 5.89920654 1.99291992 6.04345703 C0 6 0 6 -3 4 C-2.67 3.34 -2.34 2.68 -2 2 C-1.34 2 -0.68 2 0 2 C0 1.34 0 0.68 0 0 Z " fill="#3185C4" transform="translate(56,74)"/>
<path d="M0 0 C0.33292585 4.24480464 0.43885872 6.35542625 -2 9.9375 C-2.66 10.618125 -3.32 11.29875 -4 12 C-4 10.68 -4 9.36 -4 8 C-4.99 8.33 -5.98 8.66 -7 9 C-5.99432671 5.98298013 -3.90847918 0 0 0 Z " fill="#237BBD" transform="translate(70,105)"/>
<path d="M0 0 C0.33 0 0.66 0 1 0 C2.34844868 5.6556294 3.36934845 11.2190275 4 17 C3.01 17.33 2.02 17.66 1 18 C0.26919734 16.02253397 -0.39421747 14.01927511 -1 12 C-0.67 11.34 -0.34 10.68 0 10 C0.06996014 8.29297265 0.08440154 6.58331997 0.0625 4.875 C0.05347656 3.96492188 0.04445313 3.05484375 0.03515625 2.1171875 C0.02355469 1.41851562 0.01195313 0.71984375 0 0 Z " fill="#0B6FB8" transform="translate(79,85)"/>
<path d="M0 0 C0.66 0.33 1.32 0.66 2 1 C-0.52761916 5.2126986 -2.50069621 7.91495678 -7 10 C-9.8125 10.6875 -9.8125 10.6875 -12 11 C-8.19588166 7.08060535 -4.18423892 3.50897269 0 0 Z " fill="#D4EFFA" transform="translate(111,14)"/>
<path d="M0 0 C3.28788824 3.11016455 5.83735988 6.01618925 8 10 C6.02 10.99 6.02 10.99 4 12 C2.68 10.35 1.36 8.7 0 7 C0.33 6.67 0.66 6.34 1 6 C0.71325582 3.99279077 0.38133299 1.9914056 0 0 Z " fill="#2377B5" transform="translate(15,189)"/>
<path d="M0 0 C3.3 0.33 6.6 0.66 10 1 C10 1.33 10 1.66 10 2 C7.36 2 4.72 2 2 2 C2 6.29 2 10.58 2 15 C0.00609999 11.01219998 -0.22686963 9.52852428 -0.125 5.25 C-0.09792969 3.77273438 -0.09792969 3.77273438 -0.0703125 2.265625 C-0.04710937 1.51796875 -0.02390625 0.7703125 0 0 Z " fill="#B8E0F5" transform="translate(5,3)"/>
<path d="M0 0 C-0.8125 1.9375 -0.8125 1.9375 -2 4 C-5.47325181 5.1577506 -8.36067448 5.06866652 -12 5 C-11.67 4.01 -11.34 3.02 -11 2 C-7.24092359 0.37676246 -4.07913787 -0.23994929 0 0 Z " fill="#096EBB" transform="translate(107,217)"/>
<path d="M0 0 C0.66 0.33 1.32 0.66 2 1 C2.41064453 2.85766602 2.41064453 2.85766602 2.6328125 5.25390625 C2.71660156 6.10791016 2.80039063 6.96191406 2.88671875 7.84179688 C2.96535156 8.73962891 3.04398437 9.63746094 3.125 10.5625 C3.21136719 11.46419922 3.29773438 12.36589844 3.38671875 13.29492188 C3.59951659 15.52929918 3.80354467 17.76413615 4 20 C2.68 19.34 1.36 18.68 0 18 C0 17.34 0 16.68 0 16 C0.66 16 1.32 16 2 16 C1.835 15.484375 1.67 14.96875 1.5 14.4375 C0.84951 11.26636124 0.9379266 8.22781666 1 5 C0.01 5 -0.98 5 -2 5 C-2 4.34 -2 3.68 -2 3 C-1.34 3 -0.68 3 0 3 C0 2.01 0 1.02 0 0 Z " fill="#167BC8" transform="translate(2,147)"/>
<path d="M0 0 C1.875 0.1875 1.875 0.1875 4 1 C5.68644932 3.89105597 6.06919665 5.48102512 5.625 8.8125 C5.41875 9.534375 5.2125 10.25625 5 11 C0.07692308 6.81538462 0.07692308 6.81538462 -0.3125 2.6875 C-0.209375 1.800625 -0.10625 0.91375 0 0 Z " fill="#1E79B9" transform="translate(86,111)"/>
<path d="M0 0 C0.33 0 0.66 0 1 0 C0.25 6.625 0.25 6.625 -2 10 C-4.625 11.1875 -4.625 11.1875 -7 12 C-6.505 11.1028125 -6.505 11.1028125 -6 10.1875 C-4.79212012 7.94613529 -4.79212012 7.94613529 -5 5 C-4.01 5 -3.02 5 -2 5 C-1.34 3.35 -0.68 1.7 0 0 Z " fill="#1170B5" transform="translate(17,103)"/>
<path d="M0 0 C3.14703761 1.57351881 3.7416747 4.30201662 5.1875 7.4375 C5.73792969 8.61183594 6.28835937 9.78617188 6.85546875 10.99609375 C7.23316406 11.98738281 7.61085938 12.97867188 8 14 C7.67 14.66 7.34 15.32 7 16 C6.34 15.67 5.68 15.34 5 15 C5 13.35 5 11.7 5 10 C4.34 10 3.68 10 3 10 C2.34 9.34 1.68 8.68 1 8 C0.67 8 0.34 8 0 8 C0 5.36 0 2.72 0 0 Z " fill="#BAE1F5" transform="translate(4,26)"/>
<path d="M0 0 C0.66 0.66 1.32 1.32 2 2 C-4.89715536 8.86214442 -4.89715536 8.86214442 -9.5 9.4375 C-10.325 9.293125 -11.15 9.14875 -12 9 C-8.11327187 5.81994972 -4.10047867 2.89445553 0 0 Z " fill="#D3EFFB" transform="translate(125,59)"/>
<path d="M0 0 C1.65 0 3.3 0 5 0 C5 0.66 5 1.32 5 2 C6.32 2.33 7.64 2.66 9 3 C9 3.66 9 4.32 9 5 C10.32 5 11.64 5 13 5 C13.33 6.32 13.66 7.64 14 9 C10.82010194 7.46205865 7.78518026 5.743521 4.75 3.9375 C3.85796875 3.41027344 2.9659375 2.88304687 2.046875 2.33984375 C1.37140625 1.89769531 0.6959375 1.45554687 0 1 C0 0.67 0 0.34 0 0 Z " fill="#C1E3F7" transform="translate(38,7)"/>
<path d="M0 0 C1.32 0 2.64 0 4 0 C4 0.66 4 1.32 4 2 C4.66 2 5.32 2 6 2 C5.67 2.99 5.34 3.98 5 5 C4.01 5 3.02 5 2 5 C1.67 5.99 1.34 6.98 1 8 C0.34 8 -0.32 8 -1 8 C-0.67 5.36 -0.34 2.72 0 0 Z " fill="#1475BD" transform="translate(72,92)"/>
<path d="M0 0 C0.33 0.66 0.66 1.32 1 2 C0.34 2 -0.32 2 -1 2 C-1 2.66 -1 3.32 -1 4 C-0.34 4 0.32 4 1 4 C0.67 4.99 0.34 5.98 0 7 C-2.06640625 7.73046875 -2.06640625 7.73046875 -4.5625 8.1875 C-5.38878906 8.34605469 -6.21507813 8.50460938 -7.06640625 8.66796875 C-7.70449219 8.77753906 -8.34257813 8.88710938 -9 9 C-8.06725891 7.87105124 -7.12859878 6.74699124 -6.1875 5.625 C-5.66542969 4.99851562 -5.14335938 4.37203125 -4.60546875 3.7265625 C-3 2 -3 2 0 0 Z " fill="#257BB9" transform="translate(104,14)"/>
<path d="M0 0 C1.8844171 3.7688342 2.33429462 5.68012475 2.625 9.75 C2.69976562 10.73484375 2.77453125 11.7196875 2.8515625 12.734375 C2.92503906 13.85585937 2.92503906 13.85585937 3 15 C0.36 15 -2.28 15 -5 15 C-5 14.67 -5 14.34 -5 14 C-3.35 13.67 -1.7 13.34 0 13 C0 8.71 0 4.42 0 0 Z " fill="#D3EFFB" transform="translate(145,132)"/>
<path d="M0 0 C1.5625 1.0625 1.5625 1.0625 3 3 C2.6875 6.3125 2.6875 6.3125 2 10 C1.96364237 11.9996695 1.95123402 14.00059462 2 16 C1.67 16 1.34 16 1 16 C0.46906676 14.06524329 -0.04942317 12.12706845 -0.5625 10.1875 C-0.85253906 9.10855469 -1.14257812 8.02960938 -1.44140625 6.91796875 C-2 4 -2 4 -1 1 C-0.67 0.67 -0.34 0.34 0 0 Z " fill="#0C6CB4" transform="translate(147,124)"/>
<path d="M0 0 C0.66 0.99 1.32 1.98 2 3 C1.67 3.33 1.34 3.66 1 4 C1.66 4 2.32 4 3 4 C2.3125 6.4375 2.3125 6.4375 1 9 C-1.625 9.8125 -1.625 9.8125 -4 10 C-2.99806563 6.20696275 -2.18975773 3.28463659 0 0 Z " fill="#2D80BC" transform="translate(11,109)"/>
<path d="M0 0 C0.66 0 1.32 0 2 0 C2.27263672 0.99580078 2.27263672 0.99580078 2.55078125 2.01171875 C4.14448155 7.65338286 4.14448155 7.65338286 6.75 12.875 C8 15 8 15 7.6875 17.3125 C7.460625 17.869375 7.23375 18.42625 7 19 C3.04653652 13.00164161 1.51383169 6.98426892 0 0 Z " fill="#CFF1FD" transform="translate(81,92)"/>
<path d="M0 0 C0.66 0.33 1.32 0.66 2 1 C2 1.99 2 2.98 2 4 C-0.3125 5.75 -0.3125 5.75 -3 7 C-3.99 6.67 -4.98 6.34 -6 6 C-6 5.01 -6 4.02 -6 3 C-4.03533587 1.93224776 -2.03144641 0.93446535 0 0 Z " fill="#0D6DB2" transform="translate(121,4)"/>
<path d="M0 0 C-2.92324707 1.94883138 -4.51083018 2.48079727 -7.875 3.125 C-8.71804687 3.29257813 -9.56109375 3.46015625 -10.4296875 3.6328125 C-12.99151915 3.99878845 -15.41609989 4.06482904 -18 4 C-17.67 3.34 -17.34 2.68 -17 2 C-11.48328169 0.47749852 -5.71937774 -0.30915555 0 0 Z " fill="#C7E8F6" transform="translate(105,216)"/>
<path d="M0 0 C0.99 1.32 1.98 2.64 3 4 C1.515 6.475 1.515 6.475 0 9 C-0.33 8.34 -0.66 7.68 -1 7 C-1.99 7.33 -2.98 7.66 -4 8 C-2.87548273 5.0280615 -1.77706209 2.66559313 0 0 Z " fill="#277BBA" transform="translate(140,184)"/>
<path d="M0 0 C0 0.66 0 1.32 0 2 C-1.65 2.66 -3.3 3.32 -5 4 C-5 3.34 -5 2.68 -5 2 C-7.31 2.33 -9.62 2.66 -12 3 C-11 1 -11 1 -8.8125 -0.1875 C-5.50054536 -1.1442869 -3.32458783 -0.77315996 0 0 Z " fill="#3383C0" transform="translate(115,65)"/>
<path d="M0 0 C5.61 0.66 11.22 1.32 17 2 C17 2.33 17 2.66 17 3 C13.37 3.66 9.74 4.32 6 5 C6 4.34 6 3.68 6 3 C4.02 2.34 2.04 1.68 0 1 C0 0.67 0 0.34 0 0 Z " fill="#2C7DB9" transform="translate(131,145)"/>
<path d="M0 0 C-5.11280045 2.61320912 -8.43729893 4.23460142 -14.1875 3.5625 C-15.08855469 3.46066406 -15.98960938 3.35882813 -16.91796875 3.25390625 C-17.60503906 3.17011719 -18.29210937 3.08632812 -19 3 C-19 2.67 -19 2.34 -19 2 C-16.39740876 1.46989799 -13.793443 0.95062205 -11.1875 0.4375 C-10.44951172 0.28603516 -9.71152344 0.13457031 -8.95117188 -0.02148438 C-3.33984375 -1.11328125 -3.33984375 -1.11328125 0 0 Z " fill="#3789C3" transform="translate(24,145)"/>
<path d="M0 0 C4.38889325 0.66498383 7.9811485 2.18757677 12 4 C11.01 5.485 11.01 5.485 10 7 C8.68 7 7.36 7 6 7 C5.7525 6.21625 5.505 5.4325 5.25 4.625 C3.84610901 1.67682892 2.99324263 1.0975223 0 0 Z " fill="#106FB1" transform="translate(114,139)"/>
<path d="M0 0 C0.33 1.32 0.66 2.64 1 4 C0.34 4 -0.32 4 -1 4 C-0.938125 4.721875 -0.87625 5.44375 -0.8125 6.1875 C-1.09722944 10.45844161 -3.0281492 13.0281492 -6 16 C-4.94513949 9.87903309 -3.34782974 5.24493326 0 0 Z " fill="#ABD9F3" transform="translate(13,115)"/>
<path d="M0 0 C0 0.99 0 1.98 0 3 C-0.99 3.66 -1.98 4.32 -3 5 C-3.33 5.99 -3.66 6.98 -4 8 C-4.66 7.01 -5.32 6.02 -6 5 C-7.98 5.99 -7.98 5.99 -10 7 C-3.18421053 0 -3.18421053 0 0 0 Z " fill="#2B7DBA" transform="translate(38,84)"/>
<path d="M0 0 C4.75 0.75 4.75 0.75 7 3 C6.01 3.99 5.02 4.98 4 6 C1.08482708 4.92598892 -0.77810176 4.22189824 -3 2 C-2.01 2 -1.02 2 0 2 C0 1.34 0 0.68 0 0 Z " fill="#2E81C0" transform="translate(43,65)"/>
<path d="M0 0 C0.99 0.33 1.98 0.66 3 1 C3.33 1.99 3.66 2.98 4 4 C4.66 4.33 5.32 4.66 6 5 C6 5.66 6 6.32 6 7 C4.53932801 6.54917531 3.08151968 6.08906463 1.625 5.625 C0.81289063 5.36976562 0.00078125 5.11453125 -0.8359375 4.8515625 C-3 4 -3 4 -5 2 C-3.35 2 -1.7 2 0 2 C0 1.34 0 0.68 0 0 Z " fill="#3181BE" transform="translate(32,5)"/>
<path d="M0 0 C1 2 1 2 0.4375 4.875 C-1.336105 8.73066305 -3.35996583 9.94258938 -7 12 C-5.44298069 7.32894208 -2.91552627 3.91294315 0 0 Z " fill="#CDECF9" transform="translate(21,103)"/>
<path d="M0 0 C0.99 0.99 1.98 1.98 3 3 C3 6 3 6 1.6875 7.38671875 C0.125 8.59114583 -1.4375 9.79557292 -3 11 C-2.01 7.37 -1.02 3.74 0 0 Z " fill="#CBEBFA" transform="translate(76,95)"/>
<path d="M0 0 C0.33 0 0.66 0 1 0 C1.08133791 1.91595968 1.13934367 3.83291932 1.1875 5.75 C1.22230469 6.81734375 1.25710937 7.8846875 1.29296875 8.984375 C0.97082786 12.30027855 0.22851086 13.59016673 -2 16 C-3.28080392 12.15758823 -2.30805584 10.77882797 -1 7 C-0.62468554 4.67305036 -0.28082798 2.34023315 0 0 Z " fill="#CFEDFD" transform="translate(152,161)"/>
<path d="M0 0 C0.66 0 1.32 0 2 0 C2 0.66 2 1.32 2 2 C2.556875 2.12375 3.11375 2.2475 3.6875 2.375 C6.22114364 3.05976855 8.57921032 3.99133763 11 5 C11 5.33 11 5.66 11 6 C8.36 6 5.72 6 3 6 C2.01 4.02 1.02 2.04 0 0 Z " fill="#C1EDFB" transform="translate(112,141)"/>
<path d="M0 0 C3.11954738 0.33724836 4.6209965 0.6209965 6.875 2.875 C7.24625 3.57625 7.6175 4.2775 8 5 C7.67 5.99 7.34 6.98 7 8 C5.83035398 6.8572081 4.66435444 5.71068285 3.5 4.5625 C2.8503125 3.92441406 2.200625 3.28632812 1.53125 2.62890625 C0 1 0 1 0 0 Z " fill="#CAEAF7" transform="translate(96,122)"/>
<path d="M0 0 C0.66 0 1.32 0 2 0 C1.33501617 4.38889325 -0.18757677 7.9811485 -2 12 C-2.33 12 -2.66 12 -3 12 C-3.25 5.375 -3.25 5.375 -1 2 C-0.67 1.34 -0.34 0.68 0 0 Z " fill="#D0F2FD" transform="translate(7,112)"/>
<path d="M0 0 C-5.75 3.875 -5.75 3.875 -8 5 C-10.125 4.0625 -10.125 4.0625 -12 3 C-10.75823305 2.29773859 -9.50614401 1.61370891 -8.25 0.9375 C-7.20585938 0.36322266 -7.20585938 0.36322266 -6.140625 -0.22265625 C-3.63859372 -1.1312406 -2.4667645 -0.88336837 0 0 Z " fill="#DBF5FD" transform="translate(54,83)"/>
<path d="M0 0 C2.97 0.99 5.94 1.98 9 3 C9 3.66 9 4.32 9 5 C7.02 5.33 5.04 5.66 3 6 C3.33 5.01 3.66 4.02 4 3 C2.35 2.67 0.7 2.34 -1 2 C-0.67 1.34 -0.34 0.68 0 0 Z " fill="#BAE1F6" transform="translate(47,71)"/>
<path d="M0 0 C1.32 0.33 2.64 0.66 4 1 C0.04 4.465 0.04 4.465 -4 8 C-4 5 -4 5 -2 2 C-1.34 2 -0.68 2 0 2 C0 1.34 0 0.68 0 0 Z " fill="#DEF5FE" transform="translate(124,50)"/>
<path d="M0 0 C3.875 0.875 3.875 0.875 5 2 C5.66 1.34 6.32 0.68 7 0 C7.99 1.65 8.98 3.3 10 5 C8.35 5.33 6.7 5.66 5 6 C3.35 4.02 1.7 2.04 0 0 Z " fill="#257EBF" transform="translate(52,23)"/>
<path d="M0 0 C0.66 0 1.32 0 2 0 C2.125 2.375 2.125 2.375 2 5 C1.34 5.66 0.68 6.32 0 7 C-0.99 7 -1.98 7 -3 7 C-1.125 1.125 -1.125 1.125 0 0 Z " fill="#1170B7" transform="translate(129,199)"/>
<path d="M0 0 C0 2.64 0 5.28 0 8 C-0.99 8.33 -1.98 8.66 -3 9 C-3 6.36 -3 3.72 -3 1 C-1 0 -1 0 0 0 Z " fill="#086CB9" transform="translate(153,151)"/>
<path d="M0 0 C0.66 0 1.32 0 2 0 C1.67 1.98 1.34 3.96 1 6 C-0.32 6 -1.64 6 -3 6 C-2.42655063 3.13275314 -2.1385485 2.1385485 0 0 Z " fill="#0F6EB1" transform="translate(64,113)"/>
<path d="M0 0 C0.99 0.33 1.98 0.66 3 1 C2.67 1.99 2.34 2.98 2 4 C-0.35171131 3.40138258 -2.6859378 2.73075648 -5 2 C-5.33 1.34 -5.66 0.68 -6 0 C-3.46924326 -1.26537837 -2.64724917 -0.80219672 0 0 Z " fill="#0A6CB1" transform="translate(52,69)"/>
<path d="M0 0 C1 3 1 3 -0.4375 6.1875 C-1.2109375 7.5796875 -1.2109375 7.5796875 -2 9 C-2.66 8.34 -3.32 7.68 -4 7 C-3.625 4.375 -3.625 4.375 -3 2 C-2.01 2 -1.02 2 0 2 C0 1.34 0 0.68 0 0 Z " fill="#0A6DB1" transform="translate(10,117)"/>
<path d="M0 0 C0.33 0 0.66 0 1 0 C1 2.31 1 4.62 1 7 C-0.98 7.99 -0.98 7.99 -3 9 C-3.33 6.69 -3.66 4.38 -4 2 C-3.67 3.32 -3.34 4.64 -3 6 C-2.34 6 -1.68 6 -1 6 C-1.020625 5.195625 -1.04125 4.39125 -1.0625 3.5625 C-1 1 -1 1 0 0 Z " fill="#1C7ABF" transform="translate(78,66)"/>
<path d="M0 0 C2.45823172 3.68734758 3.01242616 6.69699971 4 11 C3.01 11 2.02 11 1 11 C-0.17571451 7.32589215 -0.07366746 3.83070817 0 0 Z " fill="#C8E9F8" transform="translate(68,46)"/>
<path d="M0 0 C2.50037734 2.17424117 3.43628586 3.73045798 4 7 C2.35 7 0.7 7 -1 7 C-1.33 5.35 -1.66 3.7 -2 2 C-1.34 2 -0.68 2 0 2 C0 1.34 0 0.68 0 0 Z " fill="#257BBB" transform="translate(7,23)"/>
<path d="M0 0 C4.875 1.75 4.875 1.75 6 4 C5.01 4.495 5.01 4.495 4 5 C4.66 5.66 5.32 6.32 6 7 C3.13275314 6.42655063 2.1385485 6.1385485 0 4 C0 2.68 0 1.36 0 0 Z " fill="#1970AF" transform="translate(44,12)"/>
<path d="M0 0 C4.3177458 0.50797009 8.03302114 1.19682779 12 3 C12 3.33 12 3.66 12 4 C10.56138706 3.91253716 9.12402492 3.80434652 7.6875 3.6875 C6.88699219 3.62949219 6.08648437 3.57148438 5.26171875 3.51171875 C2.63727666 2.91793306 1.69179328 2.04219706 0 0 Z " fill="#BFE7F9" transform="translate(41,219)"/>
<path d="M0 0 C0.33 0 0.66 0 1 0 C1.33 1.65 1.66 3.3 2 5 C4.97 5.495 4.97 5.495 8 6 C7.01 6.33 6.02 6.66 5 7 C5 7.66 5 8.32 5 9 C3.68 9 2.36 9 1 9 C0.67 6.03 0.34 3.06 0 0 Z " fill="#0A6AB0" transform="translate(3,142)"/>
<path d="M0 0 C1.32 1.32 2.64 2.64 4 4 C2.68 4.99 1.36 5.98 0 7 C-0.99 6.01 -1.98 5.02 -3 4 C-2.01 2.68 -1.02 1.36 0 0 Z " fill="#297EC1" transform="translate(60,117)"/>
<path d="M0 0 C0.66 1.32 1.32 2.64 2 4 C-0.17424117 6.50037734 -1.73045798 7.43628586 -5 8 C-4.67 7.01 -4.34 6.02 -4 5 C-3.34 5 -2.68 5 -2 5 C-1.34 3.35 -0.68 1.7 0 0 Z " fill="#D1EDF7" transform="translate(69,112)"/>
<path d="M0 0 C0.66 0.33 1.32 0.66 2 1 C1.67 1.66 1.34 2.32 1 3 C1.66 3 2.32 3 3 3 C3 3.66 3 4.32 3 5 C1.03533587 6.06775224 -0.96855359 7.06553465 -3 8 C-3.66 7.67 -4.32 7.34 -5 7 C-4.67 6.34 -4.34 5.68 -4 5 C-3.01 5 -2.02 5 -1 5 C-0.67 3.35 -0.34 1.7 0 0 Z " fill="#3082BF" transform="translate(45,79)"/>
<path d="M0 0 C-5.14285714 4.42857143 -5.14285714 4.42857143 -9 5 C-6.81610567 0.16423399 -5.20641855 -0.13701101 0 0 Z " fill="#C6E8F7" transform="translate(114,211)"/>
<path d="M0 0 C0.33 0.66 0.66 1.32 1 2 C0.67 2.66 0.34 3.32 0 4 C0.66 4.33 1.32 4.66 2 5 C0.02 5.99 0.02 5.99 -2 7 C-2 6.34 -2 5.68 -2 5 C-2.99 4.67 -3.98 4.34 -5 4 C-3.35 2.68 -1.7 1.36 0 0 Z " fill="#2B7EBC" transform="translate(126,202)"/>
<path d="M0 0 C1.32 1.32 2.64 2.64 4 4 C3.67 4.66 3.34 5.32 3 6 C1.35 5.67 -0.3 5.34 -2 5 C-2.33 4.01 -2.66 3.02 -3 2 C-2.01 1.34 -1.02 0.68 0 0 Z " fill="#287CBA" transform="translate(138,105)"/>
<path d="M0 0 C0.598125 0.20625 1.19625 0.4125 1.8125 0.625 C-1.1575 3.1 -1.1575 3.1 -4.1875 5.625 C-4.5175 4.305 -4.8475 2.985 -5.1875 1.625 C-2.1875 -0.375 -2.1875 -0.375 0 0 Z " fill="#0B6FB5" transform="translate(100.1875,21.375)"/>
<path d="M0 0 C0.99 0.33 1.98 0.66 3 1 C4.31035007 4.17242648 5 6.55881664 5 10 C3 9 3 9 2.1484375 6.93359375 C1.89320312 6.10988281 1.63796875 5.28617188 1.375 4.4375 C1.11460938 3.61121094 0.85421875 2.78492188 0.5859375 1.93359375 C0.39257812 1.29550781 0.19921875 0.65742188 0 0 Z " fill="#C5E8F8" transform="translate(9,176)"/>
<path d="M0 0 C1.98 0 3.96 0 6 0 C6.66 1.65 7.32 3.3 8 5 C4.62496331 3.8141763 2.35277269 2.72426311 0 0 Z " fill="#C1E6F6" transform="translate(111,135)"/>
<path d="M0 0 C0.66 0.33 1.32 0.66 2 1 C0.02 3.31 -1.96 5.62 -4 8 C-4.33 6.68 -4.66 5.36 -5 4 C-4.0409375 3.8453125 -4.0409375 3.8453125 -3.0625 3.6875 C-2.381875 3.460625 -1.70125 3.23375 -1 3 C-0.67 2.01 -0.34 1.02 0 0 Z " fill="#CEEBF7" transform="translate(56,120)"/>
<path d="M0 0 C0.33 0 0.66 0 1 0 C3.11161731 9.41002278 3.11161731 9.41002278 4 14 C2 12.625 2 12.625 0 10 C-0.35791096 6.6419531 -0.23115823 3.36463643 0 0 Z " fill="#3082B9" transform="translate(79,85)"/>
<path d="M0 0 C2 2 2 2 2.125 4.625 C2.08375 5.40875 2.0425 6.1925 2 7 C-3.875 3.25 -3.875 3.25 -5 1 C-2.525 1.495 -2.525 1.495 0 2 C0 1.34 0 0.68 0 0 Z " fill="#3385C2" transform="translate(26,52)"/>
<path d="M0 0 C0.66 0.66 1.32 1.32 2 2 C1.625 5.125 1.625 5.125 1 8 C0.01 7.67 -0.98 7.34 -2 7 C-1.34 4.69 -0.68 2.38 0 0 Z " fill="#1576BD" transform="translate(138,37)"/>
<path d="M0 0 C1.65 0 3.3 0 5 0 C5.33 0.66 5.66 1.32 6 2 C5.67 2.99 5.34 3.98 5 5 C3.0625 4.1875 3.0625 4.1875 1 3 C0.67 2.01 0.34 1.02 0 0 Z " fill="#1472B8" transform="translate(58,28)"/>
<path d="M0 0 C0.93423645 3.01031744 1.04449911 3.86650268 0 7 C-1.32 7 -2.64 7 -4 7 C-2.92598892 4.08482708 -2.22189824 2.22189824 0 0 Z " fill="#2C83C6" transform="translate(74,97)"/>
<path d="M0 0 C0 1.65 0 3.3 0 5 C-0.99 5.495 -0.99 5.495 -2 6 C-2.99 5.67 -3.98 5.34 -5 5 C-2.74193548 0 -2.74193548 0 0 0 Z " fill="#1172B9" transform="translate(26,94)"/>
<path d="M0 0 C0.33 0.99 0.66 1.98 1 3 C-1.3125 6.1875 -1.3125 6.1875 -4 9 C-4.66 9 -5.32 9 -6 9 C-4.47291037 5.56404834 -2.40072955 2.88087546 0 0 Z " fill="#CFECF8" transform="translate(98,25)"/>
<path d="M0 0 C1.65 1.65 3.3 3.3 5 5 C3.68 5.99 2.36 6.98 1 8 C0.34 7.01 -0.32 6.02 -1 5 C-0.34 4.67 0.32 4.34 1 4 C0.67 2.68 0.34 1.36 0 0 Z " fill="#277DBD" transform="translate(18,193)"/>
<path d="M0 0 C2.18975773 3.28463659 2.99806563 6.20696275 4 10 C3.01 9.67 2.02 9.34 1 9 C0.67 6.03 0.34 3.06 0 0 Z " fill="#C9EBFC" transform="translate(2,171)"/>
<path d="M0 0 C1.65 0 3.3 0 5 0 C5.33 1.32 5.66 2.64 6 4 C4.35 3.67 2.7 3.34 1 3 C0.67 2.01 0.34 1.02 0 0 Z " fill="#1074B5" transform="translate(115,87)"/>
<path d="M0 0 C1.9375 0.8125 1.9375 0.8125 3.9375 2.8125 C2.2875 3.1425 0.6375 3.4725 -1.0625 3.8125 C-1.0625 3.1525 -1.0625 2.4925 -1.0625 1.8125 C-2.3825 2.1425 -3.7025 2.4725 -5.0625 2.8125 C-2.62182203 -0.23834746 -2.62182203 -0.23834746 0 0 Z " fill="#1671B3" transform="translate(52.0625,77.1875)"/>
<path d="M0 0 C-0.33 0.99 -0.66 1.98 -1 3 C-2.98 3 -4.96 3 -7 3 C-7 2.34 -7 1.68 -7 1 C-4.53721199 -0.231394 -2.7204945 -0.07159196 0 0 Z " fill="#0B6DB7" transform="translate(110,67)"/>
<path d="M0 0 C6.64615385 1.47692308 6.64615385 1.47692308 8.4375 4.125 C8.7159375 5.053125 8.7159375 5.053125 9 6 C5.06326356 4.68775452 2.77280706 3.08089673 0 0 Z " fill="#B6DFF4" transform="translate(35,59)"/>
<path d="M0 0 C0.99 0 1.98 0 3 0 C3 0.66 3 1.32 3 2 C2.34 2 1.68 2 1 2 C0.67 3.65 0.34 5.3 0 7 C-0.99 7 -1.98 7 -3 7 C-1.125 2.25 -1.125 2.25 0 0 Z " fill="#CFECF9" transform="translate(142,38)"/>
<path d="M0 0 C1.66611905 -0.042721 3.33382885 -0.04063832 5 0 C6 1 6 1 6.0625 3.5625 C6.041875 4.366875 6.02125 5.17125 6 6 C5.566875 5.525625 5.13375 5.05125 4.6875 4.5625 C2.97690387 2.76313043 2.97690387 2.76313043 0 2 C0 1.34 0 0.68 0 0 Z " fill="#0F72B8" transform="translate(52,21)"/>
<path d="M0 0 C0.66 0 1.32 0 2 0 C1.625 2.4375 1.625 2.4375 1 5 C0.01 5.495 0.01 5.495 -1 6 C-1.66 5.34 -2.32 4.68 -3 4 C-1.625 2 -1.625 2 0 0 Z " fill="#0E6CB3" transform="translate(143,182)"/>
<path d="M0 0 C1.125 1.6875 1.125 1.6875 2 4 C1.125 6.75 1.125 6.75 0 9 C-0.66 8.01 -1.32 7.02 -2 6 C-1.33333333 4 -0.66666667 2 0 0 Z " fill="#1974B8" transform="translate(4,165)"/>
<path d="M0 0 C0.33 0 0.66 0 1 0 C1.33 3.96 1.66 7.92 2 12 C0.68 11.34 -0.64 10.68 -2 10 C-2 9.34 -2 8.68 -2 8 C-1.34 8 -0.68 8 0 8 C0 5.36 0 2.72 0 0 Z " fill="#5F9FD1" transform="translate(4,155)"/>
<path d="M0 0 C0 1.65 0 3.3 0 5 C-0.99 5.33 -1.98 5.66 -3 6 C-3.66 5.67 -4.32 5.34 -5 5 C-5 4.34 -5 3.68 -5 3 C-1.42307692 0 -1.42307692 0 0 0 Z " fill="#1170B6" transform="translate(33,88)"/>
<path d="M0 0 C1.32 0.66 2.64 1.32 4 2 C3.67 3.65 3.34 5.3 3 7 C1.68 6.34 0.36 5.68 -1 5 C-0.34 4.67 0.32 4.34 1 4 C0.67 2.68 0.34 1.36 0 0 Z " fill="#297FC0" transform="translate(120,87)"/>
<path d="M0 0 C1.32 0.33 2.64 0.66 4 1 C3.67 1.99 3.34 2.98 3 4 C1.35 4 -0.3 4 -2 4 C-1.34 2.68 -0.68 1.36 0 0 Z " fill="#0170C2" transform="translate(92,73)"/>
<path d="M0 0 C0.99 0 1.98 0 3 0 C3.33 1.32 3.66 2.64 4 4 C1.03 3.67 -1.94 3.34 -5 3 C-3.68 2.34 -2.36 1.68 -1 1 C-0.67 0.67 -0.34 0.34 0 0 Z " fill="#DDF3FB" transform="translate(64,68)"/>
<path d="M0 0 C1.70884005 1.62339805 3.37446717 3.29319053 5 5 C5 5.66 5 6.32 5 7 C3.68 6.67 2.36 6.34 1 6 C0.67 4.02 0.34 2.04 0 0 Z " fill="#C4EBFB" transform="translate(58,30)"/>
<path d="M0 0 C1.65 0 3.3 0 5 0 C5 0.66 5 1.32 5 2 C3.02 2.66 1.04 3.32 -1 4 C-0.67 2.68 -0.34 1.36 0 0 Z " fill="#CCEAF8" transform="translate(114,4)"/>
</svg>
